<svg width="315" height="35" viewBox="0 0 315 35" fill="none" xmlns="http://www.w3.org/2000/svg">
    <path
        d="M6.52344 34H1.08594C0.960938 34 0.898438 33.9219 0.898438 33.7656L0.992188 0.789062C0.992188 0.664062 1.05469 0.601562 1.17969 0.601562H10.8828C12.6172 0.601562 14.2109 1.02344 15.6641 1.86719C17.1172 2.71094 18.2734 3.84375 19.1328 5.26562C20.0078 6.6875 20.4453 8.29688 20.4453 10.0938C20.4453 11.2656 20.2656 12.3281 19.9062 13.2812C19.5469 14.2344 19.125 15.0391 18.6406 15.6953C18.1719 16.3516 17.7422 16.8359 17.3516 17.1484C19.0859 19.0703 19.9531 21.3281 19.9531 23.9219L20 33.7656C20 33.9219 19.9219 34 19.7656 34H14.3281C14.2031 34 14.1406 33.9531 14.1406 33.8594V23.9219C14.1406 22.7656 13.7344 21.7656 12.9219 20.9219C12.1094 20.0781 11.1094 19.6562 9.92188 19.6562H6.75781L6.71094 33.7656C6.71094 33.9219 6.64844 34 6.52344 34ZM10.8828 6.34375H6.75781V13.8906H10.8828C11.8672 13.8906 12.7422 13.5234 13.5078 12.7891C14.2891 12.0547 14.6797 11.1562 14.6797 10.0938C14.6797 9.07812 14.3047 8.20312 13.5547 7.46875C12.8047 6.71875 11.9141 6.34375 10.8828 6.34375ZM29.7266 34H24.2891C24.1328 34 24.0547 33.9219 24.0547 33.7656L24.1016 0.789062C24.1016 0.664062 24.1641 0.601562 24.2891 0.601562H29.6797C29.8047 0.601562 29.8672 0.664062 29.8672 0.789062L29.9141 33.7656C29.9141 33.9219 29.8516 34 29.7266 34ZM39.3594 34H34.5547C34.3047 34 34.1797 33.8906 34.1797 33.6719L34.1328 0.976562C34.1328 0.726562 34.2578 0.601562 34.5078 0.601562H38.8438L46.9531 19.5156L46.7188 0.976562C46.7188 0.726562 46.8594 0.601562 47.1406 0.601562H51.8984C52.0859 0.601562 52.1797 0.726562 52.1797 0.976562L52.2266 33.7188C52.2266 33.9062 52.1484 34 51.9922 34H47.7734L39.4531 16.3281L39.8047 33.625C39.8047 33.875 39.6562 34 39.3594 34ZM62.0234 34H56.5859C56.4609 34 56.3984 33.9219 56.3984 33.7656L56.4453 0.789062C56.4453 0.664062 56.5234 0.601562 56.6797 0.601562H62.0234C62.1797 0.601562 62.2578 0.664062 62.2578 0.789062L62.2109 13.8438H69.4062V0.789062C69.4062 0.664062 69.4688 0.601562 69.5938 0.601562H74.9375C75.0938 0.601562 75.1719 0.664062 75.1719 0.789062L75.2656 33.7656C75.2656 33.9219 75.1875 34 75.0312 34H69.6406C69.4844 34 69.4062 33.9219 69.4062 33.7656V19.6562H62.2109V33.7656C62.2109 33.9219 62.1484 34 62.0234 34ZM77.5625 33.7656L83.5156 0.789062C83.5469 0.664062 83.625 0.601562 83.75 0.601562H90.7109C90.8359 0.601562 90.9141 0.664062 90.9453 0.789062L96.6641 33.7656C96.6797 33.9219 96.6172 34 96.4766 34H91.1562C91 34 90.9141 33.9219 90.8984 33.7656L90.3828 30.25H83.8438L83.3281 33.7656C83.3125 33.9219 83.2344 34 83.0938 34H77.75C77.625 34 77.5625 33.9219 77.5625 33.7656ZM87.4531 11.6406L87.1719 9.85938L86.9609 11.6406L84.8047 25.1172H89.4219L87.4531 11.6406ZM120.969 33.9531L112.367 34C112.211 34 112.133 33.9219 112.133 33.7656L112.227 0.789062C112.227 0.664062 112.289 0.601562 112.414 0.601562L121.391 0.554688C123.172 0.507812 124.781 0.914062 126.219 1.77344C127.672 2.63281 128.828 3.79688 129.688 5.26562C130.562 6.71875 131 8.32812 131 10.0938V23.875C131 25.7188 130.555 27.4062 129.664 28.9375C128.758 30.4531 127.555 31.6641 126.055 32.5703C124.555 33.4609 122.859 33.9219 120.969 33.9531ZM121.391 6.29688L118.039 6.34375L117.992 28.0938H120.969C122.156 28.0938 123.156 27.6797 123.969 26.8516C124.781 26.0234 125.188 25.0312 125.188 23.875V10.0469C125.188 9.03125 124.812 8.14844 124.062 7.39844C123.312 6.63281 122.422 6.26562 121.391 6.29688ZM150.477 34H134.961C134.836 34 134.773 33.9219 134.773 33.7656L134.82 0.789062C134.82 0.664062 134.883 0.601562 135.008 0.601562H150.43C150.555 0.601562 150.617 0.679688 150.617 0.835938V6.20312C150.617 6.32812 150.555 6.39062 150.43 6.39062H140.586V13.8906H150.43C150.555 13.8906 150.617 13.9531 150.617 14.0781L150.664 19.5156C150.664 19.6406 150.602 19.7031 150.477 19.7031H140.586V28.0938H150.477C150.602 28.0938 150.664 28.1719 150.664 28.3281V33.8125C150.664 33.9375 150.602 34 150.477 34ZM176.188 34H167.586C167.461 34 167.398 33.9219 167.398 33.7656L167.492 0.789062C167.492 0.664062 167.555 0.601562 167.68 0.601562H176.914C178.711 0.601562 180.344 1.03906 181.812 1.91406C183.25 2.78906 184.383 3.95312 185.211 5.40625C186.039 6.84375 186.453 8.40625 186.453 10.0938C186.453 11.4688 186.141 12.75 185.516 13.9375C184.891 15.125 184.148 16.0859 183.289 16.8203C184.211 17.7422 184.93 18.8125 185.445 20.0312C185.961 21.25 186.219 22.5312 186.219 23.875C186.219 25.7344 185.773 27.4297 184.883 28.9609C183.977 30.4922 182.766 31.7188 181.25 32.6406C179.734 33.5469 178.047 34 176.188 34ZM176.914 6.29688H173.258V13.8438H176.914C178.023 13.8438 178.922 13.4531 179.609 12.6719C180.297 11.875 180.641 11.0156 180.641 10.0938C180.641 9.07812 180.273 8.19531 179.539 7.44531C178.805 6.67969 177.93 6.29688 176.914 6.29688ZM176.188 19.6562H173.258L173.211 28.1406H176.188C177.344 28.1406 178.336 27.7188 179.164 26.875C179.992 26.0312 180.406 25.0312 180.406 23.875C180.406 22.7188 179.992 21.7266 179.164 20.8984C178.336 20.0703 177.344 19.6562 176.188 19.6562ZM188.047 33.7656L194 0.789062C194.031 0.664062 194.109 0.601562 194.234 0.601562H201.195C201.32 0.601562 201.398 0.664062 201.43 0.789062L207.148 33.7656C207.164 33.9219 207.102 34 206.961 34H201.641C201.484 34 201.398 33.9219 201.383 33.7656L200.867 30.25H194.328L193.812 33.7656C193.797 33.9219 193.719 34 193.578 34H188.234C188.109 34 188.047 33.9219 188.047 33.7656ZM197.938 11.6406L197.656 9.85938L197.445 11.6406L195.289 25.1172H199.906L197.938 11.6406ZM218.984 34.4688C217.25 34.4688 215.664 34.0312 214.227 33.1562C212.805 32.2812 211.672 31.1094 210.828 29.6406C210 28.1562 209.586 26.5078 209.586 24.6953L209.633 9.71875C209.633 7.9375 210.039 6.32812 210.852 4.89062C211.664 3.4375 212.781 2.27344 214.203 1.39844C215.641 0.507812 217.234 0.0625 218.984 0.0625C220.766 0.0625 222.352 0.492188 223.742 1.35156C225.148 2.21094 226.266 3.375 227.094 4.84375C227.938 6.29688 228.359 7.92188 228.359 9.71875V11.9219C228.359 12.0469 228.297 12.1094 228.172 12.1094H222.781C222.656 12.1094 222.594 12.0469 222.594 11.9219V9.71875C222.594 8.65625 222.25 7.74219 221.562 6.97656C220.875 6.21094 220.016 5.82812 218.984 5.82812C217.844 5.82812 216.969 6.21875 216.359 7C215.75 7.78125 215.445 8.6875 215.445 9.71875V24.6953C215.445 25.8672 215.789 26.8281 216.477 27.5781C217.164 28.3125 218 28.6797 218.984 28.6797C220.016 28.6797 220.875 28.2734 221.562 27.4609C222.25 26.6328 222.594 25.7109 222.594 24.6953V22.4688C222.594 22.3438 222.656 22.2812 222.781 22.2812H228.219C228.344 22.2812 228.406 22.3438 228.406 22.4688V24.6953C228.406 26.4922 227.984 28.1328 227.141 29.6172C226.281 31.0859 225.148 32.2656 223.742 33.1562C222.336 34.0312 220.75 34.4688 218.984 34.4688ZM237.523 34H232.086C231.961 34 231.898 33.9219 231.898 33.7656L231.992 0.835938C231.992 0.679688 232.055 0.601562 232.18 0.601562H237.57C237.695 0.601562 237.758 0.679688 237.758 0.835938V12.2031L245.281 0.789062C245.406 0.664062 245.523 0.601562 245.633 0.601562H251.141C251.281 0.601562 251.312 0.664062 251.234 0.789062L242.938 14.0312L252.242 33.8125C252.32 33.9375 252.242 34 252.008 34H246.148C245.992 34 245.898 33.9375 245.867 33.8125L239.375 19.7031L237.711 22.3281V33.7656C237.711 33.9219 237.648 34 237.523 34ZM269.117 34H253.602C253.477 34 253.414 33.9219 253.414 33.7656L253.461 0.789062C253.461 0.664062 253.523 0.601562 253.648 0.601562H269.07C269.195 0.601562 269.258 0.679688 269.258 0.835938V6.20312C269.258 6.32812 269.195 6.39062 269.07 6.39062H259.227V13.8906H269.07C269.195 13.8906 269.258 13.9531 269.258 14.0781L269.305 19.5156C269.305 19.6406 269.242 19.7031 269.117 19.7031H259.227V28.0938H269.117C269.242 28.0938 269.305 28.1719 269.305 28.3281V33.8125C269.305 33.9375 269.242 34 269.117 34ZM278.797 34H273.992C273.742 34 273.617 33.8906 273.617 33.6719L273.57 0.976562C273.57 0.726562 273.695 0.601562 273.945 0.601562H278.281L286.391 19.5156L286.156 0.976562C286.156 0.726562 286.297 0.601562 286.578 0.601562H291.336C291.523 0.601562 291.617 0.726562 291.617 0.976562L291.664 33.7188C291.664 33.9062 291.586 34 291.43 34H287.211L278.891 16.3281L279.242 33.625C279.242 33.875 279.094 34 278.797 34ZM304.672 33.9531L296.07 34C295.914 34 295.836 33.9219 295.836 33.7656L295.93 0.789062C295.93 0.664062 295.992 0.601562 296.117 0.601562L305.094 0.554688C306.875 0.507812 308.484 0.914062 309.922 1.77344C311.375 2.63281 312.531 3.79688 313.391 5.26562C314.266 6.71875 314.703 8.32812 314.703 10.0938V23.875C314.703 25.7188 314.258 27.4062 313.367 28.9375C312.461 30.4531 311.258 31.6641 309.758 32.5703C308.258 33.4609 306.562 33.9219 304.672 33.9531ZM305.094 6.29688L301.742 6.34375L301.695 28.0938H304.672C305.859 28.0938 306.859 27.6797 307.672 26.8516C308.484 26.0234 308.891 25.0312 308.891 23.875V10.0469C308.891 9.03125 308.516 8.14844 307.766 7.39844C307.016 6.63281 306.125 6.26562 305.094 6.29688Z"
        fill="url(#paint0_linear_109_506)" />
    <defs>
        <linearGradient id="paint0_linear_109_506" x1="-1" y1="-25" x2="321.963" y2="35.5161"
            gradientUnits="userSpaceOnUse">
            <stop stop-color="#FF3D00" />
            <stop offset="1" stop-color="#00A3FF" />
        </linearGradient>
    </defs>
</svg>
    