<svg width="41" height="47" viewBox="0 0 41 47" fill="none" xmlns="http://www.w3.org/2000/svg">
<path d="M39.6016 6.0178L34.8669 1.28303C34.0454 0.461526 32.9312 6.07499e-06 31.7694 0L16.0618 0C13.6425 0 11.6813 1.96119 11.6813 4.3805V8.761H4.3805C1.96119 8.761 0 10.7222 0 13.1415V42.3448C0 44.7641 1.96119 46.7253 4.3805 46.7253H24.8228C27.2421 46.7253 29.2033 44.7641 29.2033 42.3448V37.9643H36.5042C38.9235 37.9643 40.8847 36.0031 40.8847 33.5838V9.11527C40.8847 7.95349 40.4231 6.8393 39.6016 6.0178ZM24.2753 42.3448H4.92806C4.78284 42.3448 4.64356 42.2871 4.54088 42.1844C4.43819 42.0818 4.3805 41.9425 4.3805 41.7973V13.6891C4.3805 13.5438 4.43819 13.4046 4.54088 13.3019C4.64356 13.1992 4.78284 13.1415 4.92806 13.1415H11.6813V33.5838C11.6813 36.0031 13.6425 37.9643 16.0618 37.9643H24.8228V41.7973C24.8228 41.9425 24.7651 42.0818 24.6625 42.1844C24.5598 42.2871 24.4205 42.3448 24.2753 42.3448ZM35.9566 33.5838H16.6094C16.4642 33.5838 16.3249 33.5261 16.2222 33.4235C16.1195 33.3208 16.0618 33.1815 16.0618 33.0363V4.92806C16.0618 4.78284 16.1195 4.64356 16.2222 4.54088C16.3249 4.43819 16.4642 4.3805 16.6094 4.3805H26.283V12.4114C26.283 13.6211 27.2636 14.6017 28.4732 14.6017H36.5042V33.0363C36.5042 33.1815 36.4465 33.3208 36.3438 33.4235C36.2411 33.5261 36.1018 33.5838 35.9566 33.5838ZM36.5042 10.2212H30.6635V4.3805H31.5425C31.6877 4.3805 31.827 4.43818 31.9297 4.54084L36.3438 8.95493C36.3947 9.00578 36.435 9.06615 36.4625 9.13259C36.49 9.19903 36.5042 9.27023 36.5042 9.34214V10.2212Z" fill="#FFFFFF" fill-opacity="0.8"/>
</svg>
