<svg width="244" height="53" viewBox="0 0 244 53" fill="none" xmlns="http://www.w3.org/2000/svg">
    <path fill-rule="evenodd" clip-rule="evenodd"
        d="M230.977 38.4971H206.185V28.5686H229.676C232.14 28.3697 232.721 24.331 229.201 24.2545L217.923 24.2698C211.342 24.2851 206.047 19.0072 206.047 12.4749C206.047 5.94264 211.342 0.664785 217.846 0.618891L238.919 0.588294V10.5168H218.917C217.035 10.4709 216.698 14.326 219.162 14.2954L231.022 14.326C237.649 14.326 243.051 19.7263 243.051 26.4115C243.036 33.0815 237.618 38.4971 230.977 38.4971ZM191.402 0.603595H202.68V38.4971H191.402V0.603595ZM23.5225 38.5889L35.6888 14.6014V38.5889H46.7379V0.588294H31.8323L23.5225 16.9114L15.2127 0.588294H0.307129V38.5889H11.3562V14.6014L23.5225 38.5889ZM170.191 28.5686H187.882V38.4971H170.191H160.626H158.912V0.603595H170.191V28.5686ZM73.3507 38.4971C79.4262 38.4971 85.8077 35.6669 85.8077 24.744V10.5321H94.9898C97.3619 10.7921 98.8922 12.0007 98.8616 14.4178C98.7851 16.4066 97.3159 17.8293 95.556 17.9517H90.5059V24.9735L103.177 38.4818H104.631H117.287H138.314V29.2723H122.49L131.366 13.5152L145.537 38.4818L158.193 38.4206L136.753 0.5271L126.071 0.588294L109.773 29.3947L104.631 23.5661C107.875 21.3632 109.957 17.661 109.758 12.7656C109.666 4.90237 104.019 0.205839 97.6832 0.557697L97.6526 0.603595H85.823H74.5444V24.2698C74.6668 26.0444 73.8557 28.1402 70.9939 28.5074H65.1021C62.2404 28.1402 61.4446 26.0444 61.5517 24.2698V0.588294H50.273V24.7287C50.273 35.6516 56.6546 38.4818 62.7301 38.4818H73.3507V38.4971Z"
        fill="white" />
    <path
        d="M239.393 49.4658H232.415L235.904 43.5761L239.393 49.4658ZM228.865 52.8008H230.456L231.742 50.6132H240.067L241.352 52.8008H242.944L236.777 42.4134H235.017L228.865 52.8008ZM212.674 52.8008H214.081V42.4134H212.674V52.8008ZM198.166 47.6607H191.432V48.808H196.758V49.8483C196.758 51.2863 195.901 51.7759 194.493 51.7759H188.999C187.652 51.7759 186.566 51.3781 186.566 49.5576V45.6566C186.566 43.8514 187.652 43.4537 188.999 43.4537H192.641C196.115 43.4537 196.697 43.6067 196.697 45.5342H198.013V45.1518C198.013 42.7653 196.023 42.291 194.156 42.291H188.846C186.03 42.291 185.143 43.5608 185.143 46.1767V49.0222C185.143 51.6535 186.03 52.9079 188.846 52.9079H194.646C197.248 52.9079 198.166 51.8982 198.166 49.0834V47.6607ZM157.413 49.0375C157.413 51.6688 158.3 52.9232 161.116 52.9232H167.1C169.916 52.9232 170.803 51.6688 170.803 49.0375V46.192C170.803 43.5608 169.916 42.3063 167.1 42.3063H161.116C158.3 42.3063 157.413 43.5761 157.413 46.192V49.0375ZM169.395 49.5576C169.395 51.3628 168.309 51.7759 166.947 51.7759H161.254C159.907 51.7759 158.805 51.3781 158.805 49.5576V45.6566C158.805 43.8514 159.892 43.4537 161.254 43.4537H166.947C168.293 43.4537 169.395 43.8514 169.395 45.6566V49.5576ZM133.555 52.8008H143.027V51.6535H134.962V42.4134H133.555V52.8008ZM105.549 49.0375C105.549 51.6688 106.437 52.9232 109.253 52.9232H115.236C118.052 52.9232 118.94 51.6688 118.94 49.0375V46.192C118.94 43.5608 118.052 42.3063 115.236 42.3063H109.253C106.437 42.3063 105.549 43.5761 105.549 46.192V49.0375ZM117.532 49.5576C117.532 51.3628 116.445 51.7759 115.083 51.7759H109.39C108.044 51.7759 106.942 51.3781 106.942 49.5576V45.6566C106.942 43.8514 108.028 43.4537 109.39 43.4537H115.083C116.43 43.4537 117.532 43.8514 117.532 45.6566V49.5576ZM78.0029 52.8008H79.4108V43.6678L88.9296 52.8008H91.0261V42.4134H89.6182V51.5311L80.0995 42.4134H78.0029V52.8008ZM51.1606 49.0375C51.1606 51.6688 52.0482 52.9232 54.864 52.9232H60.1743C63.082 52.9232 63.6941 51.9135 63.6941 50.0319V49.3282H62.378V49.9707C62.378 51.3781 61.8271 51.7759 59.9448 51.7759H55.017C53.6703 51.7759 52.5838 51.3781 52.5838 49.5576V45.6566C52.5838 43.8514 53.6703 43.4537 55.017 43.4537H59.8989C61.1843 43.4537 62.2862 43.5455 62.2862 45.3047V45.779H63.5258V44.8917C63.5258 43.4996 62.8218 42.3063 60.2661 42.3063H54.8793C52.0635 42.3063 51.1759 43.5761 51.1759 46.192V49.0375H51.1606ZM26.323 52.8008H36.5916V51.6535H27.7309V48.0278H36.1784V46.8805H27.7309V43.5608H36.5304V42.4134H26.323V52.8008ZM5.46434 52.8008H6.87227V43.5608H12.1214V42.4134H0.199951V43.5608H5.44905V52.8008H5.46434Z"
        fill="white" />
</svg>
    