<svg width="32" height="33" viewBox="0 0 32 33" fill="none" xmlns="http://www.w3.org/2000/svg">
    <g filter="url(#filter0_d_109_535)">
        <path
            d="M19.6 18.2315C18.4469 18.2315 17.8924 18.8227 16 18.8227C14.1076 18.8227 13.5571 18.2315 12.4 18.2315C9.41875 18.2315 7 20.4557 7 23.197V24.1429C7 25.1219 7.86384 25.9163 8.92857 25.9163H23.0714C24.1362 25.9163 25 25.1219 25 24.1429V23.197C25 20.4557 22.5813 18.2315 19.6 18.2315ZM23.0714 24.1429H8.92857V23.197C8.92857 21.4384 10.4875 20.0049 12.4 20.0049C12.9866 20.0049 13.9388 20.5961 16 20.5961C18.0772 20.5961 19.0094 20.0049 19.6 20.0049C21.5125 20.0049 23.0714 21.4384 23.0714 23.197V24.1429ZM16 17.6404C19.1942 17.6404 21.7857 15.2574 21.7857 12.3202C21.7857 9.383 19.1942 7 16 7C12.8058 7 10.2143 9.383 10.2143 12.3202C10.2143 15.2574 12.8058 17.6404 16 17.6404ZM16 8.7734C18.1254 8.7734 19.8571 10.3658 19.8571 12.3202C19.8571 14.2746 18.1254 15.867 16 15.867C13.8746 15.867 12.1429 14.2746 12.1429 12.3202C12.1429 10.3658 13.8746 8.7734 16 8.7734Z"
            fill="white" />
    </g>
    <defs>
        <filter id="filter0_d_109_535" x="0" y="0" width="32" height="32.9163"
            filterUnits="userSpaceOnUse" color-interpolation-filters="sRGB">
            <feFlood flood-opacity="0" result="BackgroundImageFix" />
            <feColorMatrix in="SourceAlpha" type="matrix"
                values="0 0 0 0 0 0 0 0 0 0 0 0 0 0 0 0 0 0 127 0" result="hardAlpha" />
            <feOffset />
            <feGaussianBlur stdDeviation="3.5" />
            <feComposite in2="hardAlpha" operator="out" />
            <feColorMatrix type="matrix" values="0 0 0 0 1 0 0 0 0 1 0 0 0 0 1 0 0 0 1 0" />
            <feBlend mode="normal" in2="BackgroundImageFix" result="effect1_dropShadow_109_535" />
            <feBlend mode="normal" in="SourceGraphic" in2="effect1_dropShadow_109_535"
                result="shape" />
        </filter>
    </defs>
</svg>