<svg width="149" height="44" viewBox="0 0 149 44" fill="none" xmlns="http://www.w3.org/2000/svg">
<path d="M23.1728 21.2011L37.2178 29.4304L36.9823 29.8284L23.1672 21.7392C23.1447 21.9411 22.9709 22.1036 22.7635 22.1036H21.3113C21.0871 22.1036 20.902 21.9186 20.902 21.6944V20.2425C20.902 20.0183 21.0871 19.8333 21.3113 19.8333H22.7635C22.9878 19.8333 23.1728 20.0183 23.1728 20.2425V21.2011Z" fill="#F47521"/>
<path d="M23.6774 3.11121L37.1617 29.2398L44.3776 21.9579C44.3664 21.9186 44.3608 21.8738 44.3608 21.8345V20.1136C44.3608 19.8501 44.5795 19.6315 44.843 19.6315H46.5643C46.8278 19.6315 47.0464 19.8501 47.0464 20.1136V21.8345C47.0464 22.098 46.8278 22.3166 46.5643 22.3166H44.843C44.7925 22.3166 44.7477 22.311 44.7028 22.2942L37.5317 29.5313L54.8847 35.294V35.0306C54.8847 34.7223 55.137 34.4756 55.4398 34.4756H57.4302C57.7386 34.4756 57.9853 34.7279 57.9853 35.0306V37.0206C57.9853 37.3289 57.7329 37.5756 57.4302 37.5756H55.4398C55.1314 37.5756 54.8847 37.3233 54.8847 37.0206V35.7817L37.5598 30.0302L43.3348 41.5613H44.159C44.3832 41.5613 44.5626 41.7463 44.5626 41.9705V43.4224C44.5626 43.6467 44.3776 43.8261 44.159 43.8261H42.7068C42.4825 43.8261 42.2975 43.6411 42.2975 43.4224V41.9705C42.2975 41.7463 42.4825 41.5613 42.7068 41.5613H42.8133L37.0047 29.9629L20.8123 39.6834V41.4156C20.8123 41.7239 20.56 41.9761 20.2573 41.9761H18.2669C17.9585 41.9761 17.7062 41.7239 17.7062 41.4156V39.4255C17.7062 39.1172 17.9585 38.8649 18.2669 38.8649H20.2573C20.4759 38.8649 20.6666 38.9939 20.7563 39.1789L35.3843 30.3946L5.45539 39.3751V39.7619C5.45539 39.9076 5.33204 40.0309 5.18627 40.0309H4.23311C4.08734 40.0309 3.96399 39.9076 3.96399 39.7619V38.8089C3.96399 38.6631 4.08173 38.5398 4.23311 38.5398H5.19187C5.33765 38.5398 5.461 38.6631 5.461 38.8089V38.893L35.8665 29.7611L2.68564 26.8854V27.4908C2.68564 27.7543 2.46698 27.9729 2.20346 27.9729H0.482183C0.218664 27.9729 0 27.7543 0 27.4908V25.7698C0 25.5063 0.218664 25.2877 0.482183 25.2877H2.20346C2.46698 25.2877 2.68564 25.5063 2.68564 25.7698V26.4145L36.7019 29.3631L23.156 3.11121H21.6702C21.3618 3.11121 21.1095 2.85895 21.1095 2.55624V0.560579C21.1095 0.252261 21.3618 0 21.6702 0H23.6606C23.969 0 24.2157 0.252261 24.2157 0.560579V2.55063C24.2157 2.85335 23.9746 3.1 23.6774 3.11121Z" fill="white"/>
<path fill-rule="evenodd" clip-rule="evenodd" d="M144.576 32.3398H135.493V28.7016H144.1C145.002 28.6288 145.215 27.1488 143.926 27.1208L139.794 27.1264C137.383 27.132 135.443 25.198 135.443 22.8044C135.443 20.4107 137.383 18.4767 139.766 18.4599L147.486 18.4487V22.0868H140.158C139.468 22.07 139.345 23.4827 140.248 23.4714L144.593 23.4827C147.021 23.4827 149 25.4615 149 27.9112C148.994 30.3554 147.01 32.3398 144.576 32.3398ZM130.077 18.4543H134.209V32.3398H130.077V18.4543ZM68.5708 32.3734L73.0282 23.5836V32.3734H77.0763V18.4487H71.6153L68.5708 24.43L65.5264 18.4487H60.0654V32.3734H64.1135V23.5836L68.5708 32.3734ZM122.306 28.7016H128.788V32.3398H122.306H118.802H118.174V18.4543H122.306V28.7016ZM86.8265 32.3398C89.0524 32.3398 91.3904 31.3027 91.3904 27.3002V22.0924H94.7545C95.6235 22.1877 96.1842 22.6306 96.173 23.5163C96.145 24.245 95.6067 24.7664 94.9619 24.8112H93.1117V27.3843L97.7541 32.3342H98.2867H102.924H110.627V28.9595H104.83L108.082 23.1855L113.274 32.3342L117.91 32.3118L110.055 18.4262L106.142 18.4487L100.171 29.0044L98.2867 26.8686C99.4754 26.0613 100.238 24.7047 100.165 22.9109C100.131 20.0295 98.0625 18.3085 95.7413 18.4374L95.73 18.4543H91.396H87.2638V27.1264C87.3087 27.7767 87.0115 28.5447 85.963 28.6792H83.8044C82.756 28.5447 82.4644 27.7767 82.5037 27.1264V18.4487H78.3715V27.2946C78.3715 31.2971 80.7095 32.3342 82.9354 32.3342H86.8265V32.3398Z" fill="white"/>
<path d="M147.66 36.3591H145.103L146.382 34.2009L147.66 36.3591ZM143.803 37.5812H144.386L144.857 36.7796H147.907L148.378 37.5812H148.961L146.701 33.7749H146.056L143.803 37.5812ZM137.871 37.5812H138.386V33.7749H137.871V37.5812ZM132.555 35.6977H130.088V36.1181H132.04V36.4993C132.04 37.0262 131.726 37.2056 131.21 37.2056H129.197C128.703 37.2056 128.305 37.0599 128.305 36.3928V34.9633C128.305 34.3018 128.703 34.1561 129.197 34.1561H130.531C131.804 34.1561 132.017 34.2121 132.017 34.9185H132.499V34.7783C132.499 33.9038 131.77 33.73 131.086 33.73H129.141C128.109 33.73 127.784 34.1953 127.784 35.1539V36.1966C127.784 37.1608 128.109 37.6204 129.141 37.6204H131.266C132.219 37.6204 132.555 37.2505 132.555 36.219V35.6977ZM117.625 36.2022C117.625 37.1664 117.95 37.6261 118.981 37.6261H121.174C122.205 37.6261 122.53 37.1664 122.53 36.2022V35.1595C122.53 34.1953 122.205 33.7356 121.174 33.7356H118.981C117.95 33.7356 117.625 34.2009 117.625 35.1595V36.2022ZM122.015 36.3928C122.015 37.0543 121.617 37.2056 121.118 37.2056H119.032C118.538 37.2056 118.135 37.0599 118.135 36.3928V34.9633C118.135 34.3018 118.533 34.1561 119.032 34.1561H121.118C121.611 34.1561 122.015 34.3018 122.015 34.9633V36.3928ZM108.884 37.5812H112.354V37.1608H109.399V33.7749H108.884V37.5812ZM98.6231 36.2022C98.6231 37.1664 98.9483 37.6261 99.98 37.6261H102.172C103.204 37.6261 103.529 37.1664 103.529 36.2022V35.1595C103.529 34.1953 103.204 33.7356 102.172 33.7356H99.98C98.9483 33.7356 98.6231 34.2009 98.6231 35.1595V36.2022ZM103.013 36.3928C103.013 37.0543 102.615 37.2056 102.116 37.2056H100.03C99.537 37.2056 99.1334 37.0599 99.1334 36.3928V34.9633C99.1334 34.3018 99.5314 34.1561 100.03 34.1561H102.116C102.61 34.1561 103.013 34.3018 103.013 34.9633V36.3928ZM88.531 37.5812H89.0468V34.2346L92.5342 37.5812H93.3023V33.7749H92.7865V37.1159L89.2991 33.7749H88.531V37.5812ZM78.6967 36.2022C78.6967 37.1664 79.0219 37.6261 80.0535 37.6261H81.9991C83.0644 37.6261 83.2886 37.2561 83.2886 36.5666V36.3087H82.8064V36.5441C82.8064 37.0599 82.6046 37.2056 81.915 37.2056H80.1096C79.6162 37.2056 79.2181 37.0599 79.2181 36.3928V34.9633C79.2181 34.3018 79.6162 34.1561 80.1096 34.1561H81.8981C82.3691 34.1561 82.7728 34.1897 82.7728 34.8344V35.0082H83.227V34.683C83.227 34.1729 82.969 33.7356 82.0327 33.7356H80.0591C79.0275 33.7356 78.7023 34.2009 78.7023 35.1595V36.2022H78.6967ZM69.5969 37.5812H73.359V37.1608H70.1127V35.8322H73.2076V35.4118H70.1127V34.1953H73.3366V33.7749H69.5969V37.5812ZM61.9548 37.5812H62.4707V34.1953H64.3938V33.7749H60.0261V34.1953H61.9492V37.5812H61.9548Z" fill="white"/>
</svg>
